<svg xmlns="http://www.w3.org/2000/svg" viewBox="0 0 560 315" fill="none">
  <rect width="560" height="315" fill="#111111"/>

  <!-- Background glow (search area) -->
  <ellipse cx="220" cy="55" rx="180" ry="40" fill="rgba(200,255,0,0.03)"/>

  <!-- SEARCH BAR -->
  <rect x="20" y="22" width="380" height="44" rx="22" fill="#0D0D0D" stroke="rgba(240,237,232,0.1)" stroke-width="1"/>
  <!-- Search icon -->
  <circle cx="46" cy="44" r="8" stroke="rgba(240,237,232,0.18)" stroke-width="1.2" fill="none"/>
  <line x1="52" y1="50" x2="60" y2="58" stroke="rgba(240,237,232,0.18)" stroke-width="1.5" stroke-linecap="round"/>
  <!-- Query text blocks -->
  <rect x="70" y="38" width="88" height="7" rx="3" fill="rgba(240,237,232,0.5)"/>
  <rect x="164" y="38" width="60" height="7" rx="3" fill="rgba(240,237,232,0.25)"/>
  <!-- Search button -->
  <rect x="340" y="28" width="48" height="32" rx="16" fill="rgba(200,255,0,0.8)"/>
  <rect x="351" y="40" width="26" height="5" rx="2" fill="#0D0D0D"/>

  <!-- Result separator line -->
  <line x1="20" y1="80" x2="540" y2="80" stroke="rgba(240,237,232,0.04)" stroke-width="1"/>

  <!-- ─── RESULT #1: metzundpartner.de (highlighted) ─── -->
  <rect x="20" y="88" width="396" height="82" rx="6" fill="rgba(200,255,0,0.03)" stroke="rgba(200,255,0,0.28)" stroke-width="1"/>
  <!-- Accent left border indicator -->
  <rect x="20" y="88" width="2" height="82" rx="1" fill="rgba(200,255,0,0.6)"/>

  <!-- #1 rank badge -->
  <rect x="358" y="96" width="46" height="22" rx="5" fill="rgba(200,255,0,0.15)" stroke="rgba(200,255,0,0.4)" stroke-width="0.75"/>
  <rect x="369" y="104" width="24" height="7" rx="2" fill="rgba(200,255,0,0.75)"/>

  <!-- Favicon + URL -->
  <circle cx="36" cy="102" r="5" fill="rgba(200,255,0,0.35)"/>
  <rect x="48" y="98" width="130" height="6" rx="2" fill="rgba(200,255,0,0.5)"/>
  <rect x="48" y="109" width="72" height="4" rx="2" fill="rgba(200,255,0,0.2)"/>

  <!-- Result title -->
  <rect x="36" y="122" width="220" height="11" rx="3" fill="rgba(240,237,232,0.7)"/>

  <!-- Description lines -->
  <rect x="36" y="141" width="300" height="5" rx="2" fill="rgba(240,237,232,0.22)"/>
  <rect x="36" y="152" width="240" height="5" rx="2" fill="rgba(240,237,232,0.14)"/>

  <!-- ─── RESULT #2 (muted) ─── -->
  <rect x="20" y="182" width="396" height="70" rx="6" fill="transparent" stroke="rgba(240,237,232,0.05)" stroke-width="0.75"/>
  <circle cx="36" cy="196" r="4.5" fill="rgba(240,237,232,0.1)"/>
  <rect x="48" y="192" width="110" height="5" rx="2" fill="rgba(240,237,232,0.15)"/>
  <rect x="36" y="208" width="195" height="9" rx="3" fill="rgba(240,237,232,0.25)"/>
  <rect x="36" y="224" width="285" height="4" rx="2" fill="rgba(240,237,232,0.1)"/>
  <rect x="36" y="233" width="210" height="4" rx="2" fill="rgba(240,237,232,0.07)"/>

  <!-- ─── RESULT #3 (more muted) ─── -->
  <rect x="20" y="262" width="396" height="40" rx="6" fill="transparent" stroke="rgba(240,237,232,0.03)" stroke-width="0.75"/>
  <circle cx="36" cy="274" r="4" fill="rgba(240,237,232,0.06)"/>
  <rect x="48" y="270" width="95" height="5" rx="2" fill="rgba(240,237,232,0.1)"/>
  <rect x="36" y="284" width="180" height="7" rx="2" fill="rgba(240,237,232,0.16)"/>

  <!-- ─── SIDEBAR ─── -->
  <!-- Sidebar card 1: Keyword rankings -->
  <rect x="430" y="22" width="112" height="138" rx="6" fill="#0D0D0D" stroke="rgba(240,237,232,0.07)" stroke-width="0.75"/>
  <!-- Card label -->
  <rect x="442" y="33" width="75" height="5" rx="2" fill="rgba(240,237,232,0.2)"/>
  <line x1="442" y1="44" x2="530" y2="44" stroke="rgba(240,237,232,0.05)" stroke-width="0.75"/>

  <!-- Keyword ranking bars (label + bar) -->
  <rect x="442" y="52" width="52" height="4" rx="2" fill="rgba(240,237,232,0.15)"/>
  <rect x="442" y="60" width="88" height="6" rx="3" fill="rgba(240,237,232,0.06)"/>
  <rect x="442" y="60" width="88" height="6" rx="3" fill="rgba(200,255,0,0.45)"/>

  <rect x="442" y="74" width="44" height="4" rx="2" fill="rgba(240,237,232,0.12)"/>
  <rect x="442" y="82" width="88" height="6" rx="3" fill="rgba(240,237,232,0.06)"/>
  <rect x="442" y="82" width="70" height="6" rx="3" fill="rgba(200,255,0,0.28)"/>

  <rect x="442" y="96" width="60" height="4" rx="2" fill="rgba(240,237,232,0.12)"/>
  <rect x="442" y="104" width="88" height="6" rx="3" fill="rgba(240,237,232,0.06)"/>
  <rect x="442" y="104" width="52" height="6" rx="3" fill="rgba(200,255,0,0.18)"/>

  <rect x="442" y="118" width="38" height="4" rx="2" fill="rgba(240,237,232,0.1)"/>
  <rect x="442" y="126" width="88" height="6" rx="3" fill="rgba(240,237,232,0.06)"/>
  <rect x="442" y="126" width="36" height="6" rx="3" fill="rgba(200,255,0,0.1)"/>

  <!-- Position indicators -->
  <rect x="494" y="58" width="28" height="10" rx="3" fill="rgba(200,255,0,0.15)"/>
  <rect x="499" y="61" width="18" height="4" rx="2" fill="rgba(200,255,0,0.6)"/>
  <rect x="494" y="80" width="28" height="10" rx="3" fill="rgba(240,237,232,0.06)"/>
  <rect x="499" y="83" width="18" height="4" rx="2" fill="rgba(240,237,232,0.2)"/>

  <!-- Sidebar card 2: Traffic sparkline -->
  <rect x="430" y="172" width="112" height="128" rx="6" fill="#0D0D0D" stroke="rgba(240,237,232,0.07)" stroke-width="0.75"/>
  <rect x="442" y="183" width="60" height="5" rx="2" fill="rgba(240,237,232,0.2)"/>
  <rect x="442" y="193" width="45" height="4" rx="2" fill="rgba(200,255,0,0.35)"/>
  <line x1="442" y1="203" x2="530" y2="203" stroke="rgba(240,237,232,0.05)" stroke-width="0.75"/>

  <!-- Sparkline chart area -->
  <!-- Area fill polygon -->
  <polygon points="442,278 442,260 455,252 466,245 475,236 484,224 494,212 505,204 518,278" fill="rgba(200,255,0,0.06)"/>
  <!-- Sparkline path -->
  <polyline points="442,260 455,252 466,245 475,236 484,224 494,212 505,204 518,196" stroke="rgba(200,255,0,0.7)" stroke-width="1.5" fill="none" stroke-linecap="round" stroke-linejoin="round"/>
  <!-- Data points -->
  <circle cx="518" cy="196" r="3.5" fill="rgba(200,255,0,0.85)" stroke="#0D0D0D" stroke-width="1.5"/>
  <!-- Axis lines -->
  <line x1="442" y1="278" x2="530" y2="278" stroke="rgba(240,237,232,0.07)" stroke-width="0.75"/>
  <line x1="442" y1="214" x2="442" y2="278" stroke="rgba(240,237,232,0.07)" stroke-width="0.75"/>

  <!-- Y-axis tick labels -->
  <rect x="444" y="258" width="14" height="3" rx="1" fill="rgba(240,237,232,0.12)"/>
  <rect x="444" y="236" width="14" height="3" rx="1" fill="rgba(240,237,232,0.12)"/>
  <rect x="444" y="214" width="14" height="3" rx="1" fill="rgba(240,237,232,0.12)"/>
</svg>
